<svg width="799" height="248" viewBox="0 0 799 248" fill="none" xmlns="http://www.w3.org/2000/svg">
<path d="M51.8005 85.6575C47.8942 85.6575 44.7067 84.2825 42.238 81.5325C39.8213 78.7304 38.613 75.1054 38.613 70.6575C38.613 66.3241 39.5765 61.8814 41.5088 57.3241C43.4775 52.7721 46.1963 48.9856 49.6546 45.97C53.165 43.0116 57.0609 41.5325 61.3421 41.5325C64.8525 41.5325 67.9255 43.0116 70.5505 45.97C73.1859 48.9283 74.5088 52.2773 74.5088 56.0116C74.5088 60.2356 73.4932 64.6939 71.4671 69.3866C69.4359 74.0846 66.6807 77.97 63.1963 81.0533C59.7067 84.1262 55.9098 85.6575 51.8005 85.6575ZM93.7796 31.2408H81.9255L79.2796 41.1991C75.4463 33.0741 69.2432 29.0116 60.6755 29.0116C53.8265 29.0116 47.6234 31.095 42.0713 35.2616C36.5817 39.4439 32.3057 44.8658 29.238 51.5325C26.165 58.1991 24.6338 65.0481 24.6338 72.0741C24.6338 76.7304 25.6755 81.0898 27.7588 85.1575C29.8421 89.1575 32.7223 92.3658 36.4046 94.7825C40.0817 97.1471 44.1963 98.3241 48.738 98.3241C51.988 98.3241 55.2588 97.4491 58.5505 95.6991C61.8942 93.8814 64.7484 91.6575 67.113 89.0325H67.4255C67.5921 92.1054 68.6182 94.4231 70.5088 95.9908C72.4098 97.5481 74.6546 98.3241 77.238 98.3241C80.79 98.3241 84.8057 97.2825 89.2796 95.1991C93.7484 93.1158 98.04 89.9804 102.155 85.7825C106.28 81.5741 109.639 76.345 112.238 70.095C114.847 63.8346 116.155 56.72 116.155 48.7616C116.155 41.8033 114.686 35.3189 111.759 29.3033C108.827 23.2929 104.79 18.1054 99.6546 13.7408C94.5296 9.38143 88.6338 6.00643 81.9671 3.6158C75.3005 1.23039 68.3109 0.0324707 61.0088 0.0324707C50.1442 0.0324707 40.0192 2.73039 30.6338 8.1158C21.2588 13.4387 13.8005 20.7356 8.25879 30.0116C2.75879 39.2773 0.00878906 49.4023 0.00878906 60.3866C0.00878906 69.6523 1.5765 78.2356 4.71712 86.1366C7.89421 94.0429 12.3265 100.876 18.0088 106.637C23.6859 112.402 30.2692 116.845 37.7588 119.97C45.2432 123.095 53.2432 124.657 61.7588 124.657C68.3421 124.657 74.7692 123.559 81.0505 121.366C87.3421 119.173 93.0765 116.048 98.2588 111.991C103.436 107.939 107.842 103.111 111.467 97.5116H99.7796C95.3317 102.611 89.8213 106.585 83.238 109.428C76.5973 112.236 69.6546 113.637 62.4046 113.637C53.1963 113.637 44.8265 111.501 37.3005 107.22C29.8421 102.986 23.9723 96.8658 19.6963 88.8658C15.4567 80.9075 13.3421 71.6314 13.3421 61.0325C13.3421 51.8658 15.3525 43.4439 19.3838 35.7616C23.4255 28.0846 29.0921 22.0064 36.3838 17.5325C43.6859 13.0637 51.8942 10.8241 61.0088 10.8241C69.1338 10.8241 76.5713 12.47 83.3213 15.7616C90.014 19.0012 95.3057 23.6679 99.1963 29.7616C103.097 35.845 105.05 42.8398 105.05 50.7408C105.05 57.2721 103.978 63.2981 101.842 68.8241C99.7015 74.3398 96.9723 78.6991 93.6546 81.9075C90.3317 85.1158 86.9984 86.72 83.6546 86.72C81.514 86.72 80.4463 85.2408 80.4463 82.2825C80.4463 79.9231 80.8265 77.7512 81.5921 75.7616L93.7796 31.2408Z" fill="#B380FF"/>
<path d="M140.62 121.949V2.59497H159.308V70.345L193.474 35.7616H216.516L183.828 67.4491L219.558 121.949H196.599L170.495 80.1366L159.308 91.2408V121.949H140.62Z" fill="#B380FF"/>
<path d="M307.66 142.532V134.303H225.014V142.532H307.66Z" fill="#B380FF"/>
<path d="M374.911 92.8868C374.911 98.3191 372.661 102.408 368.161 105.158C363.661 107.908 358.891 109.283 353.849 109.283C349.609 109.283 345.714 108.402 342.161 106.637C338.589 104.835 336.807 101.949 336.807 97.991C336.807 92.3972 338.724 88.7201 342.557 86.9701C346.401 85.2097 352.109 83.8347 359.682 82.8451C367.307 81.9181 372.38 80.6264 374.911 78.9701V92.8868ZM393.849 58.4076C393.849 49.9493 390.5 43.6941 383.807 39.6368C377.167 35.6264 369.151 33.616 359.766 33.616C349.016 33.616 340 35.8191 332.724 40.2201C325.458 44.6108 321.437 52.0118 320.661 62.4285H339.682C340.667 53.2201 346.979 48.616 358.62 48.616C370.411 48.616 376.307 52.5431 376.307 60.3868C376.307 63.6264 375.234 65.9233 373.099 67.2826C371.016 68.6576 368.047 69.6264 364.203 70.1785C360.37 70.7201 355.922 71.3556 350.87 72.0743C343.911 73.0639 338.193 74.2983 333.724 75.7826C329.25 77.2566 325.5 79.8347 322.474 83.5118C319.458 87.1941 317.953 92.3556 317.953 98.991C317.953 104.533 319.318 109.199 322.057 112.991C324.807 116.772 328.443 119.585 332.974 121.428C337.5 123.262 342.453 124.178 347.828 124.178C353.37 124.178 358.776 123.21 364.057 121.283C369.318 119.481 373.568 116.928 376.807 113.637C377.849 120.668 382.625 124.178 391.141 124.178C395.359 124.178 399.286 123.434 402.911 121.949V108.949C401.37 109.173 400.245 109.283 399.536 109.283C395.745 109.116 393.849 107.027 393.849 103.012V58.4076Z" fill="#B380FF"/>
<path d="M409.742 49.7616H423.909L423.992 100.72C424.102 104.668 424.482 107.96 425.138 110.595C425.805 113.22 426.982 115.444 428.68 117.262C430.331 119.012 432.68 120.345 435.721 121.262C438.763 122.163 442.727 122.616 447.617 122.616C449.044 122.616 451.102 122.501 453.784 122.282C456.477 122.059 458.513 121.949 459.888 121.949V107.303C457.898 107.736 455.206 107.949 451.805 107.949C447.914 107.949 445.419 107.09 444.326 105.366C443.227 103.631 442.68 100.486 442.68 95.9283V49.7616H459.888V35.7616H442.763V9.84497H423.992V35.7616H409.742V49.7616Z" fill="#B380FF"/>
<path d="M493.812 78.9701C493.812 84.3035 494.604 89.2618 496.187 93.8451C497.781 98.4285 500.354 102.152 503.895 105.012C507.437 107.861 511.895 109.283 517.27 109.283C522.364 109.283 526.755 107.856 530.437 104.991C534.171 102.199 536.958 98.4858 538.791 93.8451C540.624 89.2097 541.541 84.3035 541.541 79.1368C541.541 73.8764 540.635 68.9076 538.833 64.241C536.916 59.5222 534.114 55.7358 530.437 52.8868C526.755 50.043 522.364 48.616 517.27 48.616C512.27 48.616 507.999 50.0222 504.458 52.8243C500.926 55.616 498.255 59.3399 496.437 63.991C494.687 68.6056 493.812 73.5951 493.812 78.9701ZM559.583 35.7618V153.47H540.479L540.312 111.158C537.729 115.34 533.749 118.585 528.374 120.887C523.166 123.189 517.65 124.345 511.833 124.345C503.76 124.345 496.9 122.251 491.249 118.074C485.65 113.965 481.458 108.481 478.666 101.616C475.916 94.7566 474.541 87.3191 474.541 79.3035C474.541 70.8035 476.062 63.0691 479.104 56.0951C482.156 49.1264 486.697 43.6368 492.729 39.6368C498.77 35.6264 506.093 33.616 514.708 33.616C521.301 33.616 526.604 34.6524 530.604 36.7201C534.604 38.7774 537.343 40.8451 538.833 42.9285C540.317 45.0118 541.218 46.5743 541.541 47.616V35.7618H559.583Z" fill="#B380FF"/>
<path d="M603.709 121.949L577.209 35.7617H597.292L614.334 100.053L630.542 35.7617H649.23L664.876 100.053L682.396 35.7617H701.501L674.667 121.949H655.646L639.438 57.6576L623.23 121.949H603.709Z" fill="#B380FF"/>
<path d="M770.075 92.8868C770.075 98.3191 767.825 102.408 763.325 105.158C758.825 107.908 754.054 109.283 749.012 109.283C744.772 109.283 740.877 108.402 737.325 106.637C733.752 104.835 731.97 101.949 731.97 97.991C731.97 92.3972 733.887 88.7201 737.72 86.9701C741.564 85.2097 747.272 83.8347 754.845 82.8451C762.47 81.9181 767.543 80.6264 770.075 78.9701V92.8868ZM789.012 58.4076C789.012 49.9493 785.663 43.6941 778.97 39.6368C772.33 35.6264 764.314 33.616 754.929 33.616C744.179 33.616 735.163 35.8191 727.887 40.2201C720.621 44.6108 716.601 52.0118 715.825 62.4285H734.845C735.83 53.2201 742.142 48.616 753.783 48.616C765.575 48.616 771.47 52.5431 771.47 60.3868C771.47 63.6264 770.397 65.9233 768.262 67.2826C766.179 68.6576 763.21 69.6264 759.366 70.1785C755.533 70.7201 751.085 71.3556 746.033 72.0743C739.075 73.0639 733.356 74.2983 728.887 75.7826C724.413 77.2566 720.663 79.8347 717.637 83.5118C714.621 87.1941 713.116 92.3556 713.116 98.991C713.116 104.533 714.481 109.199 717.22 112.991C719.97 116.772 723.606 119.585 728.137 121.428C732.663 123.262 737.616 124.178 742.991 124.178C748.533 124.178 753.939 123.21 759.22 121.283C764.481 119.481 768.731 116.928 771.97 113.637C773.012 120.668 777.788 124.178 786.304 124.178C790.522 124.178 794.45 123.434 798.075 121.949V108.949C796.533 109.173 795.408 109.283 794.7 109.283C790.908 109.116 789.012 107.027 789.012 103.012V58.4076Z" fill="#B380FF"/>
<path d="M290.434 187.824L271.809 206.574L292.184 235.345H279.1L264.663 213.991L258.6 219.991V235.345H248.309V187.824H258.6V207.574L277.288 187.824H290.434Z" fill="#B380FF"/>
<path d="M333.087 218.116C333.087 223.647 331.467 228.074 328.233 231.408C325.009 234.741 320.702 236.408 315.316 236.408C309.941 236.408 305.629 234.741 302.379 231.408C299.129 228.074 297.504 223.647 297.504 218.116C297.504 212.647 299.15 208.241 302.441 204.908C305.733 201.574 310.072 199.908 315.462 199.908C320.754 199.908 325.009 201.574 328.233 204.908C331.467 208.241 333.087 212.647 333.087 218.116ZM323.608 218.054C323.608 214.626 322.858 211.944 321.358 210.012C319.868 208.085 317.816 207.116 315.191 207.116C312.65 207.116 310.639 208.095 309.171 210.054C307.712 212.012 306.983 214.699 306.983 218.116C306.983 221.632 307.712 224.366 309.171 226.324C310.639 228.283 312.691 229.262 315.316 229.262C317.941 229.262 319.973 228.278 321.421 226.304C322.879 224.319 323.608 221.569 323.608 218.054Z" fill="#B380FF"/>
<path d="M371.582 208.179H360.228V235.345H350.832V208.179H339.478V200.908H371.582V208.179Z" fill="#B380FF"/>
<path d="M411.295 224.658C410.222 228.356 408.254 231.231 405.379 233.283C402.514 235.324 399.108 236.345 395.149 236.345C389.842 236.345 385.576 234.699 382.358 231.408C379.134 228.116 377.524 223.757 377.524 218.324C377.524 212.991 379.149 208.59 382.399 205.116C385.649 201.647 389.785 199.908 394.816 199.908C400.009 199.908 404.139 201.679 407.212 205.22C410.295 208.751 411.837 213.543 411.837 219.595V220.533H387.129C387.17 223.507 387.889 225.778 389.295 227.345C390.696 228.903 392.67 229.679 395.212 229.679C398.545 229.679 400.879 228.007 402.212 224.658H411.295ZM402.212 214.512C401.988 212.251 401.254 210.397 400.004 208.949C398.764 207.507 397.035 206.783 394.816 206.783C392.717 206.783 390.972 207.47 389.587 208.845C388.212 210.22 387.389 212.111 387.129 214.512H402.212Z" fill="#B380FF"/>
<path d="M429.301 200.908V205.179C431.801 201.71 435.363 199.97 439.988 199.97C444.613 199.97 448.327 201.637 451.134 204.97C453.936 208.304 455.342 212.757 455.342 218.324C455.342 223.715 453.973 228.048 451.238 231.324C448.499 234.59 444.884 236.22 440.384 236.22C435.759 236.22 432.223 234.507 429.78 231.074V247.554H420.363V200.908H429.301ZM437.655 207.574C435.072 207.574 433.056 208.512 431.613 210.387C430.165 212.251 429.447 214.856 429.447 218.199C429.447 221.533 430.176 224.137 431.634 226.012C433.103 227.876 435.134 228.804 437.717 228.804C440.259 228.804 442.249 227.876 443.697 226.012C445.139 224.137 445.863 221.574 445.863 218.324C445.863 214.991 445.124 212.366 443.655 210.449C442.181 208.533 440.181 207.574 437.655 207.574Z" fill="#B380FF"/>
<path d="M496.525 235.345H487.442V212.054L475.15 235.345H464.4V200.908H473.484V224.199L485.775 200.908H496.525V235.345Z" fill="#B380FF"/>
<path d="M539.235 235.345H529.819V220.866H516.527V235.345H507.11V200.908H516.527V213.387H529.819V200.908H539.235V235.345Z" fill="#B380FF"/>
<path d="M581.739 235.345H572.134C571.812 234.46 571.593 233.345 571.468 232.012C568.562 234.903 564.843 236.345 560.301 236.345C556.478 236.345 553.478 235.418 551.301 233.574C549.119 231.731 548.03 229.179 548.03 225.929C548.03 224.47 548.218 223.189 548.593 222.074C548.968 220.949 549.582 220.012 550.447 219.262C551.322 218.501 552.145 217.876 552.926 217.387C553.702 216.903 554.78 216.507 556.155 216.199C557.541 215.882 558.66 215.647 559.509 215.491C560.353 215.34 561.535 215.173 563.051 214.991C566.384 214.548 568.619 214.085 569.759 213.595C570.895 213.095 571.468 212.179 571.468 210.845C571.468 207.778 569.395 206.241 565.259 206.241C563.077 206.241 561.473 206.632 560.447 207.408C559.416 208.189 558.749 209.554 558.447 211.512H549.572C550.098 203.778 555.41 199.908 565.509 199.908C575.52 199.908 580.53 203.647 580.53 211.116V225.991C580.53 230.356 580.931 233.47 581.739 235.345ZM571.384 218.595C570.27 219.262 568.051 219.861 564.718 220.387C561.91 220.835 560.082 221.387 559.239 222.054C558.265 222.903 557.78 224.064 557.78 225.533C557.78 226.965 558.228 228.09 559.134 228.908C560.051 229.731 561.332 230.137 562.989 230.137C565.515 230.137 567.541 229.465 569.072 228.116C570.614 226.757 571.384 224.876 571.384 222.47V218.595Z" fill="#B380FF"/>
</svg>
